<?xml version="1.0" ?><svg data-name="Layer 26" id="Layer_26" viewBox="0 0 100 100" xmlns="http://www.w3.org/2000/svg"><title/><path d="M67,36.52V32.79A3.58,3.58,0,0,0,63.21,29H38.13A3.86,3.86,0,0,0,34,32.79V37H33c-5.61,0-10,4.06-10,9.67V67h4v5h7V67H66v5h7V67h4V46.67A10,10,0,0,0,67,36.52ZM63.21,31A1.6,1.6,0,0,1,65,32.79V37H39V32.79C39,31.62,40.23,31,41.4,31ZM36,32.79a2,2,0,0,1,1.73-2.1,4.21,4.21,0,0,0-.73,2.1V37H36ZM32,70H29V67h3Zm39,0H68V67h3Zm4-5H25V63H75ZM25,61V46.67c0-4.5,3.5-7.67,8-7.67H67c4.5,0,8,3.16,8,7.67V61ZM73,45H69V42H67v3H63v6h4v7h2V51h4Zm-2,4H65V47h6Z"/></svg>